# xmcd
#
# Track frame offsets: 
#        150
#        24287
#        43212
#        63002
#        79392
#        97010
#        112672
#        129877
#        147657
#        159562
#        179222
#        197997
#        212862
#        229295
#        246870
#        262013
#        273486
#        296073
#        311346
#
# Disc length: 4413 seconds
#
# Revision: 0
# Processed by: cddbd v1.5.2PL0 Copyright (c) Steve Scherf et al.
# Submitted via: ExactAudioCopy v0.99pb1
#
DISCID=23113b13
DTITLE=Snoop Dogg - Da Game Is to Be Sold, Not to Be Told
DYEAR=1998
DGENRE=Hip-Hop
TTITLE0=Snoop World
TTITLE1=Slow Down
TTITLE2=Woof!
TTITLE3=Gin and Juice II
TTITLE4=Show Me Love
TTITLE5=Hustle and Ball
TTITLE6=Dont Let Go
TTITLE7=Tru Tank Dogs
TTITLE8=Whatcha Gon Do?
TTITLE9=Still A G Thang
TTITLE10=20 Dollars To My Name
TTITLE11=D.O.G.'s Get Lonely 2
TTITLE12=Ain't Nut'in Personal
TTITLE13=DP Gangsta
TTITLE14=Game Of Life
TTITLE15=See Ya When I Get There
TTITLE16=Pay For P...
TTITLE17=Picture This
TTITLE18=Doggz Gonna Get Ya
EXTD=
EXTT0=
EXTT1=
EXTT2=
EXTT3=
EXTT4=
EXTT5=
EXTT6=
EXTT7=
EXTT8=
EXTT9=
EXTT10=
EXTT11=
EXTT12=
EXTT13=
EXTT14=
EXTT15=
EXTT16=
EXTT17=
EXTT18=
PLAYORDER=
